<svg width="164" height="164" viewBox="0 0 164 164" fill="none" xmlns="http://www.w3.org/2000/svg">
<circle cx="82" cy="82" r="82" fill="#4ADE47"/>
<path d="M106.6 60.2701L71.8316 95.0381L57.3176 80.5241C56.551 79.7575 55.5113 79.3268 54.4271 79.3268C53.343 79.3268 52.3032 79.7575 51.5366 80.5241C50.77 81.2907 50.3394 82.3305 50.3394 83.4146C50.3394 83.9514 50.4451 84.483 50.6505 84.9789C50.856 85.4749 51.1571 85.9255 51.5366 86.3051L68.9206 103.689C70.5196 105.288 73.1026 105.288 74.7016 103.689L112.34 66.0511C112.722 65.6675 113.024 65.212 113.229 64.7109C113.434 64.2097 113.537 63.673 113.534 63.1315C113.53 62.5901 113.419 62.0549 113.207 61.5567C112.995 61.0585 112.686 60.6073 112.299 60.2291C110.782 58.6711 108.199 58.6711 106.6 60.2701Z" fill="white"/>
</svg>
