<svg width="50" height="50" viewBox="0 0 50 50" fill="none" xmlns="http://www.w3.org/2000/svg">
<circle cx="25" cy="25" r="25" fill="white"/>
<circle cx="25" cy="25" r="20" fill="#FFEDED"/>
<path d="M31.3 18.71C31.2075 18.6173 31.0976 18.5437 30.9766 18.4935C30.8556 18.4434 30.7259 18.4175 30.595 18.4175C30.464 18.4175 30.3343 18.4434 30.2134 18.4935C30.0924 18.5437 29.9825 18.6173 29.89 18.71L25 23.59L20.11 18.7C20.0174 18.6074 19.9075 18.534 19.7865 18.4839C19.6656 18.4337 19.5359 18.408 19.405 18.408C19.274 18.408 19.1444 18.4337 19.0234 18.4839C18.9025 18.534 18.7926 18.6074 18.7 18.7C18.6074 18.7926 18.534 18.9025 18.4839 19.0234C18.4337 19.1444 18.408 19.274 18.408 19.405C18.408 19.5359 18.4337 19.6656 18.4839 19.7865C18.534 19.9075 18.6074 20.0174 18.7 20.11L23.59 25L18.7 29.89C18.6074 29.9826 18.534 30.0925 18.4839 30.2134C18.4337 30.3344 18.408 30.464 18.408 30.595C18.408 30.7259 18.4337 30.8556 18.4839 30.9765C18.534 31.0975 18.6074 31.2074 18.7 31.3C18.7926 31.3926 18.9025 31.466 19.0234 31.5161C19.1444 31.5662 19.274 31.592 19.405 31.592C19.5359 31.592 19.6656 31.5662 19.7865 31.5161C19.9075 31.466 20.0174 31.3926 20.11 31.3L25 26.41L29.89 31.3C29.9826 31.3926 30.0925 31.466 30.2134 31.5161C30.3344 31.5662 30.464 31.592 30.595 31.592C30.7259 31.592 30.8556 31.5662 30.9765 31.5161C31.0975 31.466 31.2074 31.3926 31.3 31.3C31.3926 31.2074 31.466 31.0975 31.5161 30.9765C31.5662 30.8556 31.592 30.7259 31.592 30.595C31.592 30.464 31.5662 30.3344 31.5161 30.2134C31.466 30.0925 31.3926 29.9826 31.3 29.89L26.41 25L31.3 20.11C31.68 19.73 31.68 19.09 31.3 18.71Z" fill="#EB5757"/>
</svg>
