<svg width="48" height="48" viewBox="0 0 48 48" fill="none" xmlns="http://www.w3.org/2000/svg">
<g filter="url(#filter0_d_1_324)">
<circle cx="24" cy="24" r="20" fill="#FFEBE2"/>
<circle cx="24" cy="24" r="19" stroke="white" stroke-width="2"/>
</g>
<g clip-path="url(#clip0_1_324)">
<path fill-rule="evenodd" clip-rule="evenodd" d="M15.4285 15.9643C15.4285 15.8222 15.485 15.686 15.5854 15.5855C15.6859 15.485 15.8222 15.4286 15.9642 15.4286H19.1785C19.3206 15.4286 19.4569 15.485 19.5573 15.5855C19.6578 15.686 19.7142 15.8222 19.7142 15.9643C19.7142 16.1064 19.6578 16.2426 19.5573 16.3431C19.4569 16.4436 19.3206 16.5 19.1785 16.5H16.5V19.1786C16.5 19.3207 16.4435 19.4569 16.343 19.5574C16.2426 19.6579 16.1063 19.7143 15.9642 19.7143C15.8222 19.7143 15.6859 19.6579 15.5854 19.5574C15.485 19.4569 15.4285 19.3207 15.4285 19.1786V15.9643ZM28.2857 15.9643C28.2857 15.8222 28.3421 15.686 28.4426 15.5855C28.543 15.485 28.6793 15.4286 28.8214 15.4286H32.0357C32.1777 15.4286 32.314 15.485 32.4145 15.5855C32.5149 15.686 32.5714 15.8222 32.5714 15.9643V19.1786C32.5714 19.3207 32.5149 19.4569 32.4145 19.5574C32.314 19.6579 32.1777 19.7143 32.0357 19.7143C31.8936 19.7143 31.7573 19.6579 31.6569 19.5574C31.5564 19.4569 31.5 19.3207 31.5 19.1786V16.5H28.8214C28.6793 16.5 28.543 16.4436 28.4426 16.3431C28.3421 16.2426 28.2857 16.1064 28.2857 15.9643ZM15.9642 28.2857C16.1063 28.2857 16.2426 28.3422 16.343 28.4426C16.4435 28.5431 16.5 28.6794 16.5 28.8214V31.5H19.1785C19.3206 31.5 19.4569 31.5565 19.5573 31.6569C19.6578 31.7574 19.7142 31.8937 19.7142 32.0357C19.7142 32.1778 19.6578 32.3141 19.5573 32.4145C19.4569 32.515 19.3206 32.5714 19.1785 32.5714H15.9642C15.8222 32.5714 15.6859 32.515 15.5854 32.4145C15.485 32.3141 15.4285 32.1778 15.4285 32.0357V28.8214C15.4285 28.6794 15.485 28.5431 15.5854 28.4426C15.6859 28.3422 15.8222 28.2857 15.9642 28.2857ZM32.0357 28.2857C32.1777 28.2857 32.314 28.3422 32.4145 28.4426C32.5149 28.5431 32.5714 28.6794 32.5714 28.8214V32.0357C32.5714 32.1778 32.5149 32.3141 32.4145 32.4145C32.314 32.515 32.1777 32.5714 32.0357 32.5714H28.8214C28.6793 32.5714 28.543 32.515 28.4426 32.4145C28.3421 32.3141 28.2857 32.1778 28.2857 32.0357C28.2857 31.8937 28.3421 31.7574 28.4426 31.6569C28.543 31.5565 28.6793 31.5 28.8214 31.5H31.5V28.8214C31.5 28.6794 31.5564 28.5431 31.6569 28.4426C31.7573 28.3422 31.8936 28.2857 32.0357 28.2857ZM18.6428 18.6429H21.8571V21.8572H18.6428V18.6429ZM18.6428 26.1429H21.8571V29.3572H18.6428V26.1429ZM26.1428 18.6429H29.3571V21.8572H26.1428V18.6429ZM22.9285 17.5714H17.5714V22.9286H22.9285V17.5714ZM22.9285 25.0714H17.5714V30.4286H22.9285V25.0714ZM25.0714 17.5714H30.4285V22.9286H25.0714V17.5714ZM19.7142 19.7143H20.7857V20.7857H19.7142V19.7143ZM27.2142 19.7143H28.2857V20.7857H27.2142V19.7143ZM20.7857 27.2143H19.7142V28.2857H20.7857V27.2143ZM24.5357 24H24V26.1429H25.0714V27.2143H24V28.2857H26.1428V26.1429H27.2142V28.2857H28.2857V27.2143H30.4285V26.1429H27.2142V24H24.5357ZM26.1428 26.1429V25.0714H25.0714V26.1429H26.1428ZM30.4285 29.8929V28.2857H29.3571V29.3572H27.2142V30.4286H30.4285V29.8929ZM26.1428 30.4286V29.3572H24V30.4286H26.1428ZM28.2857 25.0714H30.4285V24H28.2857V25.0714Z" fill="#FF534F"/>
</g>
<defs>
<filter id="filter0_d_1_324" x="0" y="0" width="48" height="48" filterUnits="userSpaceOnUse" color-interpolation-filters="sRGB">
<feFlood flood-opacity="0" result="BackgroundImageFix"/>
<feColorMatrix in="SourceAlpha" type="matrix" values="0 0 0 0 0 0 0 0 0 0 0 0 0 0 0 0 0 0 127 0" result="hardAlpha"/>
<feOffset/>
<feGaussianBlur stdDeviation="2"/>
<feComposite in2="hardAlpha" operator="out"/>
<feColorMatrix type="matrix" values="0 0 0 0 0.625 0 0 0 0 0.625 0 0 0 0 0.625 0 0 0 0.25 0"/>
<feBlend mode="normal" in2="BackgroundImageFix" result="effect1_dropShadow_1_324"/>
<feBlend mode="normal" in="SourceGraphic" in2="effect1_dropShadow_1_324" result="shape"/>
</filter>
<clipPath id="clip0_1_324">
<rect width="17.1429" height="17.1429" fill="white" transform="translate(15.4285 15.4286)"/>
</clipPath>
</defs>
</svg>
